# xmcd
#
# Track frame offsets:
#	150
#	19089
#	37287
#	45844
#	65172
#	79888
#	97506
#	114804
#	134969
#	144095
#	157327
#	174624
#	192139
#	202064
#	224045
#	242463
#	254003
#	270570
#	287795
#	297555
#
# Disc length: 4209 seconds
#
# Revision: 3
# Processed by: cddbd v1.5.2PL0 Copyright (c) Steve Scherf et al.
# Submitted via: audiograbber 1.83.01
#
DISCID=3a106f14
DTITLE=Various Artist - My Christmas - The Best Time Of The Year
DYEAR=2016
DGENRE=Weihnachtslieder
TTITLE0=The Backstreet Boys - Christmas Time
TTITLE1=Christina Aguilera - This Christmas
TTITLE2=Elvis Presley - Santa Bring My Baby Back (To Me)
TTITLE3=Britney Spears - My Only Wish (This Year)
TTITLE4=Whitney Houston - The First Noel
TTITLE5=Train - Shake Up Christmas
TTITLE6=Fifth Harmony - All I Want For Christmas Is You
TTITLE7=Sara Bareillies and Ingrid Michaelson - Winter Song
TTITLE8=Tamar Braxton - Sleigh Ride
TTITLE9=Boney M. - Jingle Bells
TTITLE10=Maria Mena - Home For Christmas
TTITLE11=Modern Talking - It's Christmas
TTITLE12=Fiona Apple - Frosty The Snowman
TTITLE13=Gloria Estefan - Christmas Through Your Eyes
TTITLE14=Michael Bolton - Santa Claus Is Comming To Town
TTITLE15=Johnny Cash - Little Drummer Boy
TTITLE16=Meghan Trainor - I'll Be Home
TTITLE17=Kelly Clarkson - Underneath The Tree
TTITLE18=Art Garfunkel - O Come All Ye Faithful
TTITLE19=*NSYNC - I Don't Wanna Spend One More Christmas With You
EXTD=
EXTT0=
EXTT1=
EXTT2=
EXTT3=
EXTT4=
EXTT5=
EXTT6=
EXTT7=
EXTT8=
EXTT9=
EXTT10=
EXTT11=
EXTT12=
EXTT13=
EXTT14=
EXTT15=
EXTT16=
EXTT17=
EXTT18=
EXTT19=
PLAYORDER=
